<svg width="512" height="512" xmlns="http://www.w3.org/2000/svg">

 <g>
  <title>Layer 1</title>
  <g id="svg_1" class="drawing-elements">
   <g id="svg_2" class="drawing-elements">
    <metadata>Created by potrace 1.16, written by Peter Selinger 2001-2019</metadata>
    <g id="svg_3" fill="#879a39" transform="translate(0, 512) scale(0.1, -0.1)">
     <path id="svg_4" d="m1561.87248,3732.53646c-328.57485,-55.01176 -650.89114,-278.11502 -779.1918,-531.78037c-306.66986,-620.41043 510.07334,-1390.57511 1270.48944,-1201.09015c100.1371,27.50588 209.66205,58.06797 244.08418,70.29281c50.06855,18.33725 53.19783,9.16863 34.42213,-73.34902c-50.06855,-232.27189 143.94708,-522.61174 453.74623,-672.36599c538.2369,-262.83398 1248.58445,-168.0915 1514.57361,198.65359c378.6434,525.66795 -272.24774,1289.72021 -1098.3788,1292.77642c-150.20565,0 -165.85207,6.11242 -165.85207,70.29281c-3.12928,103.91111 -106.39567,302.56469 -212.79133,400.36338l-97.00781,85.57385l-269.11845,-143.64182c-150.20565,-79.46143 -278.5063,-134.4732 -287.89416,-125.30457c-9.38785,9.16863 28.16356,106.96732 81.36139,220.04705c56.32712,113.07973 97.00781,226.15947 90.74925,253.66535c-21.90499,110.02353 -500.68549,204.766 -779.1918,155.86666zm403.67768,-739.60259c25.03427,3.05621 34.42213,-6.11242 25.03427,-21.39346c-28.16356,-42.78693 31.29284,-67.2366 212.79133,-94.74248c143.94708,-21.39346 150.20565,-24.44967 40.6807,-27.50588l-118.9128,-3.05621l187.75706,-152.81045c103.26638,-82.51764 197.14491,-168.0915 209.66205,-186.42875c12.51714,-21.39346 -68.84426,39.73072 -184.62778,134.4732c-291.02344,241.44051 -378.6434,281.17123 -303.54058,140.58562c18.77571,-30.56209 25.03427,-58.06797 18.77571,-58.06797c-9.38785,0 -37.55141,36.67451 -62.58569,82.51764l-43.80998,85.57385l-37.55141,-137.52941c-21.90499,-76.40523 -59.4564,-213.93463 -78.23211,-305.6209c-21.90499,-91.68627 -40.6807,-134.4732 -43.80998,-91.68627c0,42.78693 25.03427,180.31633 59.4564,305.6209c46.93926,174.20391 50.06855,232.27189 21.90499,250.60914c-46.93926,30.56209 -322.31629,3.05621 -566.40046,-55.01176c-100.1371,-27.50588 -187.75706,-39.73072 -194.01563,-33.6183c-25.03427,24.44967 503.81478,146.69803 619.5983,143.64182c62.58569,0 122.04209,12.22484 134.55923,30.56209c9.38785,15.28105 0,30.56209 -21.90499,30.56209c-21.90499,3.05621 -125.17137,79.46143 -228.43776,174.20391c-131.42994,119.19215 -147.07636,137.52941 -50.06855,67.2366c319.187,-241.44051 297.28201,-241.44051 190.88634,-12.22484c-137.68851,296.45228 -112.65424,287.28365 40.6807,-15.28105c78.23211,-155.86666 147.07636,-256.72156 172.11064,-250.60914zm-785.45037,110.02353c-9.38785,-9.16863 -37.55141,-12.22484 -59.4564,-3.05621c-25.03427,9.16863 -15.64642,18.33725 18.77571,18.33725c34.42213,3.05621 53.19783,-6.11242 40.6807,-15.28105zm143.94708,-33.6183c-21.90499,-6.11242 -59.4564,-6.11242 -78.23211,0c-21.90499,9.16863 -6.25857,15.28105 37.55141,15.28105c43.80998,0 59.4564,-6.11242 40.6807,-15.28105zm137.68851,-27.50588c-9.38785,-9.16863 -37.55141,-12.22484 -59.4564,-3.05621c-25.03427,9.16863 -15.64642,18.33725 18.77571,18.33725c34.42213,3.05621 53.19783,-6.11242 40.6807,-15.28105zm362.99698,-174.20391c-12.51714,-21.39346 -100.1371,-143.64182 -190.88634,-275.05881c-175.23992,-250.60914 -250.34275,-323.95816 -106.39567,-103.91111c143.94708,220.04705 291.02344,418.70064 306.66986,418.70064c9.38785,0 3.12928,-18.33725 -9.38785,-39.73072zm319.187,-265.89019c28.16356,-48.89934 40.6807,-91.68627 34.42213,-91.68627c-9.38785,0 -37.55141,42.78693 -65.71497,91.68627c-28.16356,51.95555 -40.6807,91.68627 -34.42213,91.68627c9.38785,0 37.55141,-39.73072 65.71497,-91.68627zm1486.41005,-336.18299c-18.77571,-33.6183 -40.6807,-61.12418 -50.06855,-61.12418c-6.25857,0 0,27.50588 18.77571,61.12418c18.77571,33.6183 40.6807,61.12418 50.06855,61.12418c6.25857,0 0,-27.50588 -18.77571,-61.12418zm-525.71977,-152.81045c56.32712,-33.6183 90.74925,-61.12418 78.23211,-61.12418c-34.42213,0 -209.66205,88.63006 -209.66205,106.96732c0,27.50588 28.16356,15.28105 131.42994,-45.84314zm359.8677,-36.67451c-9.38785,-21.39346 -15.64642,-6.11242 -15.64642,36.67451c0,42.78693 6.25857,58.06797 15.64642,39.73072c6.25857,-21.39346 6.25857,-58.06797 0,-76.40523zm384.90197,36.67451c-25.03427,-15.28105 -59.4564,-30.56209 -78.23211,-30.56209c-15.64642,0 -9.38785,15.28105 15.64642,30.56209c25.03427,15.28105 62.58569,30.56209 78.23211,30.56209c18.77571,0 9.38785,-15.28105 -15.64642,-30.56209zm-1148.44735,-21.39346c-21.90499,-6.11242 -59.4564,-6.11242 -78.23211,0c-21.90499,9.16863 -6.25857,15.28105 37.55141,15.28105c43.80998,0 59.4564,-6.11242 40.6807,-15.28105zm137.68851,-27.50588c-9.38785,-9.16863 -37.55141,-12.22484 -59.4564,-3.05621c-25.03427,9.16863 -15.64642,18.33725 18.77571,18.33725c34.42213,3.05621 53.19783,-6.11242 40.6807,-15.28105zm885.58746,6.11242c0,-6.11242 -21.90499,-21.39346 -50.06855,-30.56209c-25.03427,-9.16863 -37.55141,-6.11242 -28.16356,12.22484c18.77571,30.56209 78.23211,42.78693 78.23211,18.33725zm-760.41609,-36.67451c-9.38785,-9.16863 -37.55141,-12.22484 -59.4564,-3.05621c-25.03427,9.16863 -15.64642,18.33725 18.77571,18.33725c34.42213,3.05621 53.19783,-6.11242 40.6807,-15.28105zm156.46422,-30.56209c-9.38785,-9.16863 -37.55141,-12.22484 -59.4564,-3.05621c-25.03427,9.16863 -15.64642,18.33725 18.77571,18.33725c34.42213,3.05621 53.19783,-6.11242 40.6807,-15.28105zm-219.0499,-94.74248c-62.58569,-6.11242 -162.72278,-6.11242 -219.0499,0c-53.19783,6.11242 0,12.22484 118.9128,12.22484c122.04209,0 165.85207,-6.11242 100.1371,-12.22484zm369.25555,-33.6183c-165.85207,-128.36078 -187.75706,-140.58562 -103.26638,-58.06797c50.06855,45.84314 97.00781,82.51764 109.52495,82.51764c12.51714,0 9.38785,-9.16863 -6.25857,-24.44967zm125.17137,-238.3843c-68.84426,-235.3281 -81.36139,-195.59738 -18.77571,58.06797c28.16356,113.07973 53.19783,183.37254 59.4564,158.92287c6.25857,-24.44967 -12.51714,-122.24836 -40.6807,-216.99084z"/>
    </g>
   </g>
  </g>
 </g>
</svg>